# 3ds Max Wavefront OBJ Exporter v0.97b - (c)2007 guruware
# File Created: 21.01.2015 17:21:50

mtllib table.mtl

#
# object Box001
#

#
# object TableTop
#

v  -9.9110 15.0000 9.9110
v  -9.9110 15.0000 -9.9110
v  9.9110 15.0000 -9.9110
v  9.9110 15.0000 9.9110
v  -12.5000 16.7289 12.5000
v  12.5000 16.7289 12.5000
v  12.5000 16.7289 -12.5000
v  -12.5000 16.7289 -12.5000
# 8 vertices

vn 0.0000 -1.0000 -0.0000
vn 0.0000 1.0000 -0.0000
vn 0.0000 -0.7194 0.6946
vn 0.6946 -0.7194 -0.0000
vn 0.0000 -0.7194 -0.6946
vn -0.6946 -0.7194 -0.0000
# 6 vertex normals

vt 0.8940 0.1297 0.3463
vt 0.8940 0.8703 0.3463
vt 0.1060 0.8703 0.3463
vt 0.1060 0.1297 0.3463
vt 0.0031 0.0330 0.6537
vt 0.9969 0.0330 0.6537
vt 0.9969 0.9670 0.6537
vt 0.0031 0.9670 0.6537
# 8 texture coords

g TableTop
usemtl Material__24
s 2
f 1/1/1 2/2/1 3/3/1 4/4/1 
s 4
f 5/5/2 6/6/2 7/7/2 8/8/2 
s 8
f 1/1/3 4/4/3 6/5/3 5/6/3 
s 16
f 4/4/4 3/3/4 7/8/4 6/5/4 
s 32
f 3/3/5 2/2/5 8/7/5 7/8/5 
s 64
f 2/2/6 1/1/6 5/6/6 8/7/6 
# 6 polygons

#
# object Support
#

v  -2.0000 -0.0000 0.5000
v  -2.0000 -0.0000 -0.5000
v  2.0000 -0.0000 -0.5000
v  2.0000 -0.0000 0.5000
v  -2.0000 15.0000 0.5000
v  2.0000 15.0000 0.5000
v  2.0000 15.0000 -0.5000
v  -2.0000 15.0000 -0.5000
v  6.0000 -0.0000 -0.5000
v  6.0000 -0.0000 0.5000
v  2.0000 4.0000 -0.5000
v  2.2412 2.6319 -0.5000
v  6.0000 0.0608 -0.5000
v  6.0000 0.0608 -0.2000
v  6.0000 0.0608 0.2000
v  6.0000 0.0608 0.5000
v  5.3054 0.0608 0.5000
v  2.0000 4.0000 0.5000
v  2.2412 2.6319 0.5000
v  2.2412 2.6319 0.2000
v  2.0000 4.0000 0.2000
v  5.3054 0.0608 0.2000
v  5.3054 0.0608 -0.2000
v  4.0000 0.5359 -0.2000
v  4.0000 0.5359 0.2000
v  2.9358 1.4288 -0.2000
v  2.9358 1.4288 0.2000
v  2.2412 2.6319 -0.2000
v  2.0000 4.0000 -0.2000
v  5.3054 0.0608 -0.5000
v  4.0000 0.5359 -0.5000
v  2.9358 1.4288 -0.5000
v  4.0000 0.5359 0.5000
v  2.9358 1.4288 0.5000
v  -6.0000 -0.0000 0.5000
v  -6.0000 -0.0000 -0.5000
v  -2.0000 4.0000 0.5000
v  -2.2412 2.6319 0.5000
v  -6.0000 0.0608 0.5000
v  -6.0000 0.0608 0.2000
v  -6.0000 0.0608 -0.2000
v  -6.0000 0.0608 -0.5000
v  -5.3054 0.0608 -0.5000
v  -2.0000 4.0000 -0.5000
v  -2.2412 2.6319 -0.5000
v  -2.2412 2.6319 -0.2000
v  -2.0000 4.0000 -0.2000
v  -5.3054 0.0608 -0.2000
v  -5.3054 0.0608 0.2000
v  -4.0000 0.5359 0.2000
v  -4.0000 0.5359 -0.2000
v  -2.9358 1.4288 0.2000
v  -2.9358 1.4288 -0.2000
v  -2.2412 2.6319 0.2000
v  -2.0000 4.0000 0.2000
v  -5.3054 0.0608 0.5000
v  -4.0000 0.5359 0.5000
v  -2.9358 1.4288 0.5000
v  -4.0000 0.5359 -0.5000
v  -2.9358 1.4288 -0.5000
v  2.0000 11.0000 0.5000
v  -2.0000 11.0000 0.5000
v  2.0000 11.0000 0.2000
v  2.0000 11.0000 -0.2000
v  2.0000 11.0000 -0.5000
v  6.0000 15.0000 0.5000
v  6.0000 15.0000 -0.5000
v  2.2412 12.3681 0.5000
v  6.0000 14.9392 0.5000
v  6.0000 14.9392 0.2000
v  6.0000 14.9392 -0.2000
v  6.0000 14.9392 -0.5000
v  5.3054 14.9392 -0.5000
v  2.2412 12.3681 -0.5000
v  2.2412 12.3681 -0.2000
v  5.3054 14.9392 -0.2000
v  5.3054 14.9392 0.2000
v  4.0000 14.4641 0.2000
v  4.0000 14.4641 -0.2000
v  2.9358 13.5711 0.2000
v  2.9358 13.5711 -0.2000
v  2.2412 12.3681 0.2000
v  5.3054 14.9392 0.5000
v  4.0000 14.4641 0.5000
v  2.9358 13.5711 0.5000
v  4.0000 14.4641 -0.5000
v  2.9358 13.5712 -0.5000
v  -2.0000 11.0000 -0.5000
v  -2.0000 11.0000 -0.2000
v  -2.0000 11.0000 0.2000
v  -6.0000 15.0000 -0.5000
v  -6.0000 15.0000 0.5000
v  -2.2412 12.3681 -0.5000
v  -6.0000 14.9392 -0.5000
v  -6.0000 14.9392 -0.2000
v  -6.0000 14.9392 0.2000
v  -6.0000 14.9392 0.5000
v  -5.3054 14.9392 0.5000
v  -2.2412 12.3681 0.5000
v  -2.2412 12.3681 0.2000
v  -5.3054 14.9392 0.2000
v  -5.3054 14.9392 -0.2000
v  -4.0000 14.4641 -0.2000
v  -4.0000 14.4641 0.2000
v  -2.9358 13.5712 -0.2000
v  -2.9358 13.5712 0.2000
v  -2.2412 12.3681 -0.2000
v  -5.3054 14.9392 -0.5000
v  -4.0000 14.4641 -0.5000
v  -2.9358 13.5712 -0.5000
v  -4.0000 14.4641 0.5000
v  -2.9358 13.5712 0.5000
# 112 vertices

vn -0.0000 -1.0000 -0.0000
vn 0.0000 -1.0000 0.0000
vn 0.0000 1.0000 -0.0000
vn -0.0000 -1.0000 0.0000
vn 0.0000 0.0000 -1.0000
vn 0.0000 -0.0000 -1.0000
vn 1.0000 0.0000 -0.0000
vn 1.0000 -0.0000 -0.0000
vn -0.0000 -0.0000 1.0000
vn 0.0000 -0.0000 1.0000
vn -0.0000 0.0000 1.0000
vn 0.9848 0.1736 -0.0000
vn 0.9397 0.3420 -0.0000
vn 0.1736 0.9848 -0.0000
vn 0.5000 0.8660 0.0000
vn 0.5000 0.8660 -0.0000
vn 0.7660 0.6428 -0.0000
vn 0.7660 0.6428 0.0000
vn -0.0000 1.0000 -0.0000
vn -0.0000 0.0000 -1.0000
vn 0.0000 -1.0000 -0.0000
vn -1.0000 0.0000 -0.0000
vn -0.0000 -0.0000 -1.0000
vn -0.9848 0.1736 0.0000
vn -0.9397 0.3420 0.0000
vn -0.1736 0.9848 0.0000
vn -0.5000 0.8660 -0.0000
vn -0.5000 0.8660 0.0000
vn -0.7660 0.6428 -0.0000
vn -0.7660 0.6428 0.0000
vn -0.9397 0.3420 -0.0000
vn -0.9848 0.1736 -0.0000
vn -0.1736 0.9848 -0.0000
vn 0.0000 1.0000 0.0000
vn -0.0000 1.0000 0.0000
vn 0.0000 0.0000 1.0000
vn 0.9848 -0.1736 0.0000
vn 0.9397 -0.3420 0.0000
vn 0.1736 -0.9848 -0.0000
vn 0.5000 -0.8660 -0.0000
vn 0.7660 -0.6428 -0.0000
vn 0.9397 -0.3420 -0.0000
vn 0.9848 -0.1736 -0.0000
vn -0.9541 0.0000 0.2993
vn -0.9848 -0.1736 0.0000
vn -0.9397 -0.3420 0.0000
vn -0.1736 -0.9848 -0.0000
vn -0.5000 -0.8660 -0.0000
vn -0.5000 -0.8660 0.0000
vn -0.7660 -0.6428 -0.0000
vn -0.7660 -0.6428 0.0000
vn -0.9397 -0.3420 -0.0000
vn -0.9848 -0.1736 -0.0000
vn -0.1736 -0.9848 0.0000
# 54 vertex normals

vt 1.0000 0.0000 0.0000
vt 1.0000 1.0000 0.0000
vt 0.0000 1.0000 0.0000
vt 0.0000 0.0000 0.0000
vt 0.0603 0.3420 0.0000
vt 0.0000 0.9848 0.0000
vt 0.3000 0.9848 0.0000
vt 0.7000 0.9848 0.0000
vt 1.0000 0.9848 0.0000
vt 0.1736 0.9848 0.0000
vt 0.2500 0.2500 1.0000
vt 0.1944 0.2500 1.0000
vt 0.1944 0.4000 1.0000
vt 0.2500 0.4000 1.0000
vt 0.0278 0.4000 1.0000
vt 0.0278 0.6000 1.0000
vt 0.0833 0.6000 1.0000
vt 0.0833 0.4000 1.0000
vt 0.1389 0.6000 1.0000
vt 0.1389 0.4000 1.0000
vt 0.1944 0.6000 1.0000
vt 0.2500 0.6000 1.0000
vt 0.0278 0.7500 1.0000
vt 0.0833 0.7500 1.0000
vt 0.1389 0.7500 1.0000
vt 0.1944 0.7500 1.0000
vt 0.2500 0.7500 1.0000
vt 1.0000 0.4000 1.0000
vt 1.0000 0.6000 1.0000
vt 1.0278 0.6000 1.0000
vt 1.0278 0.4000 1.0000
vt 1.0000 0.7500 1.0000
vt 1.0278 0.7500 1.0000
vt 1.0000 0.2500 1.0000
vt 1.0278 0.2500 1.0000
vt 0.0833 0.2500 1.0000
vt 0.0278 0.2500 1.0000
vt 0.1389 0.2500 1.0000
vt 0.2340 0.6428 0.0000
vt 0.5000 0.8660 0.0000
vt 0.8264 0.9848 0.0000
vt 0.7660 0.6428 0.0000
vt 0.9397 0.3420 0.0000
vt 1.0000 0.7333 0.0000
vt 0.0000 0.7333 0.0000
vt 0.0000 0.2667 0.0000
vt 1.0000 0.2667 0.0000
vt 0.3000 0.2667 0.0000
vt 0.3000 0.7333 0.0000
vt 0.7000 0.7333 0.0000
vt 0.7000 0.2667 0.0000
# 51 texture coords

g Support
usemtl Material__25
s 2
f 9/9/7 10/10/7 11/11/8 12/12/8 
s 4
f 13/12/9 14/9/9 15/10/9 16/11/9 
f 11/12/10 17/9/10 18/10/10 12/11/10 
s 8
f 11/11/11 19/12/12 20/13/12 
s 16
f 17/11/13 21/14/13 22/15/13 23/16/14 
f 18/10/14 17/11/13 23/16/14 24/17/13 
s 32
f 24/14/15 25/18/16 12/10/15 18/11/17 
s 1
f 26/19/18 27/20/19 28/21/19 29/22/18 
f 30/23/20 31/24/20 32/25/21 33/26/22 
f 33/26/22 32/25/21 34/27/23 35/28/23 
f 35/28/23 34/27/23 36/29/19 28/21/19 
f 28/21/19 36/29/19 37/30/18 29/22/18 
f 31/24/20 38/31/20 39/32/21 32/25/21 
f 34/27/23 40/33/24 20/34/19 36/29/19 
f 32/25/21 39/32/21 40/33/24 34/27/23 
f 36/29/19 20/34/19 19/35/18 37/30/18 
f 23/36/9 22/37/25 31/38/20 30/39/20 
f 31/38/20 22/37/25 21/40/9 38/41/20 
f 24/42/9 23/36/9 30/39/20 25/43/20 
f 33/26/22 41/44/22 25/45/20 30/23/20 
f 35/28/23 42/46/23 41/44/22 33/26/22 
f 28/21/19 27/20/19 42/46/23 35/28/23 
s 8
f 20/13/12 40/47/11 11/11/11 
f 40/47/11 39/48/11 11/11/11 
f 39/48/11 38/49/11 11/11/11 
f 17/10/26 11/11/11 38/49/11 21/17/26 
s 32
f 25/18/16 41/48/15 12/10/15 
f 41/48/15 42/50/15 12/10/15 
f 42/50/15 27/51/17 12/10/15 
f 27/51/17 26/9/17 12/10/15 
s 4
f 9/12/27 43/9/27 44/10/27 10/11/27 
s 32
f 9/11/17 45/12/15 46/13/15 
s 16
f 43/11/28 47/14/28 48/15/28 49/16/28 
f 44/10/28 43/11/28 49/16/28 50/17/28 
s 8
f 50/14/12 51/18/29 10/10/12 44/11/11 
s 1
f 52/19/30 53/20/31 54/21/31 55/22/30 
f 56/23/32 57/24/32 58/25/33 59/26/34 
f 59/26/34 58/25/33 60/27/35 61/28/36 
f 61/28/36 60/27/35 62/29/37 54/21/31 
f 54/21/31 62/29/37 63/30/38 55/22/30 
f 57/24/32 64/31/39 65/32/33 58/25/33 
f 60/27/35 66/33/35 46/34/37 62/29/37 
f 58/25/33 65/32/33 66/33/35 60/27/35 
f 62/29/37 46/34/37 45/35/38 63/30/38 
f 49/36/9 48/37/40 57/38/32 56/39/32 
f 57/38/32 48/37/40 47/40/41 64/41/39 
f 50/42/41 49/36/9 56/39/32 51/43/32 
f 59/26/34 67/44/34 51/45/32 56/23/32 
f 61/28/36 68/46/36 67/44/34 59/26/34 
f 54/21/31 53/20/31 68/46/36 61/28/36 
s 32
f 46/13/15 66/47/17 9/11/17 
f 66/47/17 65/48/17 9/11/17 
f 65/48/17 64/49/17 9/11/17 
f 43/10/42 9/11/17 64/49/17 47/17/42 
s 8
f 51/18/29 67/48/12 10/10/12 
f 67/48/12 68/50/12 10/10/12 
f 68/50/12 53/51/11 10/10/12 
f 53/51/11 52/9/11 10/10/12 
f 69/52/15 14/10/42 13/11/15 9/12/17 
f 70/53/28 45/54/13 9/12/17 13/11/15 
f 69/52/15 9/12/17 12/9/17 26/55/13 
s 16
f 69/53/13 26/54/13 29/56/14 71/57/13 
f 72/58/13 71/57/13 29/56/14 73/52/14 
f 73/52/14 29/56/14 37/59/14 19/55/14 
s 1
f 14/12/41 74/9/40 75/10/41 15/11/25 
s 2
f 14/11/42 69/12/42 76/13/42 
s 16
f 74/11/13 77/14/13 78/15/13 79/16/13 
f 75/10/13 74/11/13 79/16/13 80/17/13 
s 2
f 80/14/11 81/18/11 15/10/29 75/11/11 
s 1
f 73/19/43 82/20/44 83/21/44 72/22/43 
f 84/23/45 85/24/45 86/25/46 87/26/46 
f 87/26/46 86/25/46 88/27/47 89/28/47 
f 89/28/47 88/27/47 90/29/48 83/21/44 
f 83/21/44 90/29/48 71/30/49 72/22/43 
f 85/24/45 91/31/45 92/32/46 86/25/46 
f 88/27/47 93/33/47 76/34/48 90/29/48 
f 86/25/46 92/32/46 93/33/47 88/27/47 
f 90/29/48 76/34/48 69/35/49 71/30/49 
f 79/36/27 78/37/27 85/38/45 84/39/45 
f 85/38/45 78/37/27 77/40/27 91/41/45 
f 80/42/27 79/36/27 84/39/45 81/43/45 
f 87/26/46 94/44/46 81/45/45 84/23/45 
f 89/28/47 95/46/47 94/44/46 87/26/46 
f 83/21/44 82/20/44 95/46/47 89/28/47 
s 2
f 76/13/42 93/47/42 14/11/42 
f 93/47/42 92/48/16 14/11/42 
f 92/48/16 91/49/16 14/11/42 
f 74/10/16 14/11/42 91/49/16 77/17/42 
f 81/18/11 94/48/11 15/10/29 
f 94/48/11 95/50/11 15/10/29 
f 95/50/11 82/51/29 15/10/29 
f 82/51/29 73/9/29 15/10/29 
s 32
f 16/10/11 15/11/12 73/53/11 96/52/11 
f 73/53/11 19/54/50 11/12/12 10/9/12 
f 96/52/11 73/53/11 10/9/12 52/55/28 
s 64
f 96/53/28 52/54/28 55/56/28 97/57/28 
f 98/58/28 97/57/28 55/56/28 70/52/28 
f 70/52/28 55/56/28 63/59/28 45/55/28 
s 1
f 16/12/9 99/9/9 100/10/9 13/11/9 
s 8
f 16/11/26 96/12/11 101/13/11 
s 16
f 99/11/28 102/14/28 103/15/28 104/16/28 
f 100/10/28 99/11/28 104/16/28 105/17/28 
s 32
f 105/14/16 106/18/16 13/10/16 100/11/42 
s 1
f 70/19/51 107/20/52 108/21/52 98/22/51 
f 109/23/53 110/24/53 111/25/54 112/26/55 
f 112/26/55 111/25/54 113/27/56 114/28/57 
f 114/28/57 113/27/56 115/29/58 108/21/52 
f 108/21/52 115/29/58 97/30/59 98/22/51 
f 110/24/53 116/31/53 117/32/54 111/25/54 
f 113/27/56 118/33/56 101/34/58 115/29/58 
f 111/25/54 117/32/54 118/33/56 113/27/56 
f 115/29/58 101/34/58 96/35/59 97/30/59 
f 104/36/27 103/37/27 110/38/53 109/39/53 
f 110/38/53 103/37/27 102/40/27 116/41/53 
f 105/42/27 104/36/27 109/39/53 106/43/60 
f 112/26/55 119/44/55 106/45/60 109/23/53 
f 114/28/57 120/46/57 119/44/55 112/26/55 
f 108/21/52 107/20/52 120/46/57 114/28/57 
s 8
f 101/13/11 118/47/26 16/11/26 
f 118/47/26 117/48/26 16/11/26 
f 117/48/26 116/49/26 16/11/26 
f 99/10/26 16/11/26 116/49/26 102/17/26 
s 32
f 106/18/16 119/48/16 13/10/16 
f 119/48/16 120/50/16 13/10/16 
f 120/50/16 107/51/15 13/10/16 
f 107/51/15 70/9/15 13/10/16 
# 94 polygons - 32 triangles

#
# object Support001
#

v  0.5000 -0.0000 2.0000
v  -0.5000 -0.0000 2.0000
v  -0.5000 -0.0000 -2.0000
v  0.5000 -0.0000 -2.0000
v  0.5000 15.0000 2.0000
v  0.5000 15.0000 -2.0000
v  -0.5000 15.0000 -2.0000
v  -0.5000 15.0000 2.0000
v  -0.5000 -0.0000 -6.0000
v  0.5000 -0.0000 -6.0000
v  -0.5000 4.0000 -2.0000
v  -0.5000 2.6319 -2.2412
v  -0.5000 0.0608 -6.0000
v  -0.2000 0.0608 -6.0000
v  0.2000 0.0608 -6.0000
v  0.5000 0.0608 -6.0000
v  0.5000 0.0608 -5.3054
v  0.5000 4.0000 -2.0000
v  0.5000 2.6319 -2.2412
v  0.2000 2.6319 -2.2412
v  0.2000 4.0000 -2.0000
v  0.2000 0.0608 -5.3054
v  -0.2000 0.0608 -5.3054
v  -0.2000 0.5359 -4.0000
v  0.2000 0.5359 -4.0000
v  -0.2000 1.4288 -2.9358
v  0.2000 1.4288 -2.9358
v  -0.2000 2.6319 -2.2412
v  -0.2000 4.0000 -2.0000
v  -0.5000 0.0608 -5.3054
v  -0.5000 0.5359 -4.0000
v  -0.5000 1.4288 -2.9358
v  0.5000 0.5359 -4.0000
v  0.5000 1.4288 -2.9358
v  0.5000 -0.0000 6.0000
v  -0.5000 -0.0000 6.0000
v  0.5000 4.0000 2.0000
v  0.5000 2.6319 2.2412
v  0.5000 0.0608 6.0000
v  0.2000 0.0608 6.0000
v  -0.2000 0.0608 6.0000
v  -0.5000 0.0608 6.0000
v  -0.5000 0.0608 5.3054
v  -0.5000 4.0000 2.0000
v  -0.5000 2.6319 2.2412
v  -0.2000 2.6319 2.2412
v  -0.2000 4.0000 2.0000
v  -0.2000 0.0608 5.3054
v  0.2000 0.0608 5.3054
v  0.2000 0.5359 4.0000
v  -0.2000 0.5359 4.0000
v  0.2000 1.4288 2.9358
v  -0.2000 1.4288 2.9358
v  0.2000 2.6319 2.2412
v  0.2000 4.0000 2.0000
v  0.5000 0.0608 5.3054
v  0.5000 0.5359 4.0000
v  0.5000 1.4288 2.9358
v  -0.5000 0.5359 4.0000
v  -0.5000 1.4288 2.9358
v  0.5000 11.0000 -2.0000
v  0.5000 11.0000 2.0000
v  0.2000 11.0000 -2.0000
v  -0.2000 11.0000 -2.0000
v  -0.5000 11.0000 -2.0000
v  0.5000 15.0000 -6.0000
v  -0.5000 15.0000 -6.0000
v  0.5000 12.3681 -2.2412
v  0.5000 14.9392 -6.0000
v  0.2000 14.9392 -6.0000
v  -0.2000 14.9392 -6.0000
v  -0.5000 14.9392 -6.0000
v  -0.5000 14.9392 -5.3054
v  -0.5000 12.3681 -2.2412
v  -0.2000 12.3681 -2.2412
v  -0.2000 14.9392 -5.3054
v  0.2000 14.9392 -5.3054
v  0.2000 14.4641 -4.0000
v  -0.2000 14.4641 -4.0000
v  0.2000 13.5711 -2.9358
v  -0.2000 13.5711 -2.9358
v  0.2000 12.3681 -2.2412
v  0.5000 14.9392 -5.3054
v  0.5000 14.4641 -4.0000
v  0.5000 13.5711 -2.9358
v  -0.5000 14.4641 -4.0000
v  -0.5000 13.5712 -2.9358
v  -0.5000 11.0000 2.0000
v  -0.2000 11.0000 2.0000
v  0.2000 11.0000 2.0000
v  -0.5000 15.0000 6.0000
v  0.5000 15.0000 6.0000
v  -0.5000 12.3681 2.2412
v  -0.5000 14.9392 6.0000
v  -0.2000 14.9392 6.0000
v  0.2000 14.9392 6.0000
v  0.5000 14.9392 6.0000
v  0.5000 14.9392 5.3054
v  0.5000 12.3681 2.2412
v  0.2000 12.3681 2.2412
v  0.2000 14.9392 5.3054
v  -0.2000 14.9392 5.3054
v  -0.2000 14.4641 4.0000
v  0.2000 14.4641 4.0000
v  -0.2000 13.5712 2.9358
v  0.2000 13.5712 2.9358
v  -0.2000 12.3681 2.2412
v  -0.5000 14.9392 5.3054
v  -0.5000 14.4641 4.0000
v  -0.5000 13.5712 2.9358
v  0.5000 14.4641 4.0000
v  0.5000 13.5712 2.9358
# 112 vertices

vn -0.0000 -1.0000 0.0000
vn 0.0000 -1.0000 -0.0000
vn 0.0000 1.0000 -0.0000
vn 0.0000 -1.0000 0.0000
vn -1.0000 0.0000 -0.0000
vn -1.0000 -0.0000 -0.0000
vn -0.0000 0.0000 -1.0000
vn 0.0000 0.0000 -1.0000
vn -0.0000 -0.0000 -1.0000
vn 1.0000 -0.0000 0.0000
vn 1.0000 -0.0000 -0.0000
vn 1.0000 0.0000 0.0000
vn -0.0000 0.1736 -0.9848
vn -0.0000 0.3420 -0.9397
vn -0.0000 0.9848 -0.1736
vn 0.0000 0.8660 -0.5000
vn -0.0000 0.8660 -0.5000
vn 0.0000 0.6428 -0.7660
vn -0.0000 0.6428 -0.7660
vn 0.0000 0.3420 -0.9397
vn 0.0000 0.9848 -0.1736
vn 0.0000 0.1736 -0.9848
vn -0.0000 1.0000 0.0000
vn -0.0000 1.0000 -0.0000
vn -1.0000 0.0000 0.0000
vn -0.0000 -1.0000 -0.0000
vn -0.0000 0.0000 1.0000
vn -1.0000 -0.0000 0.0000
vn 0.0000 0.1736 0.9848
vn 0.0000 0.3420 0.9397
vn 0.0000 0.9848 0.1736
vn -0.0000 0.8660 0.5000
vn 0.0000 0.8660 0.5000
vn -0.0000 0.6428 0.7660
vn 0.0000 0.6428 0.7660
vn -0.0000 0.3420 0.9397
vn -0.0000 0.1736 0.9848
vn -0.0000 0.9848 0.1736
vn 0.0000 1.0000 0.0000
vn 1.0000 0.0000 -0.0000
vn 0.0000 -0.0000 -1.0000
vn 0.0000 -0.1736 -0.9848
vn 0.0000 -0.3420 -0.9397
vn 0.0000 -0.9848 -0.1736
vn -0.0000 -0.9848 -0.1736
vn -0.0000 -0.8660 -0.5000
vn 0.0000 -0.6428 -0.7660
vn -0.0000 -0.6428 -0.7660
vn -0.0000 -0.3420 -0.9397
vn -0.0000 -0.1736 -0.9848
vn 0.2993 0.0000 0.9541
vn 0.0000 -0.1736 0.9848
vn 0.0000 -0.3420 0.9397
vn -0.0000 -0.9848 0.1736
vn -0.0000 -0.8660 0.5000
vn 0.0000 -0.8660 0.5000
vn -0.0000 -0.6428 0.7660
vn 0.0000 -0.6428 0.7660
vn -0.0000 -0.3420 0.9397
vn -0.0000 -0.1736 0.9848
vn 0.0000 -0.9848 0.1736
# 61 vertex normals

vt 1.0000 0.0000 0.0000
vt 1.0000 1.0000 0.0000
vt 0.0000 1.0000 0.0000
vt 0.0000 0.0000 0.0000
vt 0.0603 0.3420 0.0000
vt 0.0000 0.9848 0.0000
vt 0.3000 0.9848 0.0000
vt 0.7000 0.9848 0.0000
vt 1.0000 0.9848 0.0000
vt 0.1736 0.9848 0.0000
vt 0.2500 0.2500 1.0000
vt 0.1944 0.2500 1.0000
vt 0.1944 0.4000 1.0000
vt 0.2500 0.4000 1.0000
vt 0.0278 0.4000 1.0000
vt 0.0278 0.6000 1.0000
vt 0.0833 0.6000 1.0000
vt 0.0833 0.4000 1.0000
vt 0.1389 0.6000 1.0000
vt 0.1389 0.4000 1.0000
vt 0.1944 0.6000 1.0000
vt 0.2500 0.6000 1.0000
vt 0.0278 0.7500 1.0000
vt 0.0833 0.7500 1.0000
vt 0.1389 0.7500 1.0000
vt 0.1944 0.7500 1.0000
vt 0.2500 0.7500 1.0000
vt 1.0000 0.4000 1.0000
vt 1.0000 0.6000 1.0000
vt 1.0278 0.6000 1.0000
vt 1.0278 0.4000 1.0000
vt 1.0000 0.7500 1.0000
vt 1.0278 0.7500 1.0000
vt 1.0000 0.2500 1.0000
vt 1.0278 0.2500 1.0000
vt 0.0833 0.2500 1.0000
vt 0.0278 0.2500 1.0000
vt 0.1389 0.2500 1.0000
vt 0.2340 0.6428 0.0000
vt 0.5000 0.8660 0.0000
vt 0.8264 0.9848 0.0000
vt 0.7660 0.6428 0.0000
vt 0.9397 0.3420 0.0000
vt 1.0000 0.7333 0.0000
vt 0.0000 0.7333 0.0000
vt 0.0000 0.2667 0.0000
vt 1.0000 0.2667 0.0000
vt 0.3000 0.2667 0.0000
vt 0.3000 0.7333 0.0000
vt 0.7000 0.7333 0.0000
vt 0.7000 0.2667 0.0000
# 51 texture coords

g Support001
usemtl Material__25
s 2
f 121/60/61 122/61/61 123/62/62 124/63/62 
s 4
f 125/63/63 126/60/63 127/61/63 128/62/63 
f 123/63/64 129/60/64 130/61/64 124/62/64 
s 8
f 123/62/65 131/63/66 132/64/66 
s 16
f 129/62/67 133/65/68 134/66/67 135/67/69 
f 130/61/69 129/62/67 135/67/69 136/68/68 
s 32
f 136/65/70 137/69/71 124/61/70 130/62/72 
s 1
f 138/70/73 139/71/74 140/72/74 141/73/73 
f 142/74/75 143/75/75 144/76/76 145/77/77 
f 145/77/77 144/76/76 146/78/78 147/79/79 
f 147/79/79 146/78/78 148/80/80 140/72/74 
f 140/72/74 148/80/80 149/81/73 141/73/73 
f 143/75/75 150/82/81 151/83/76 144/76/76 
f 146/78/78 152/84/78 132/85/80 148/80/80 
f 144/76/76 151/83/76 152/84/78 146/78/78 
f 148/80/80 132/85/80 131/86/82 149/81/73 
f 135/87/63 134/88/83 143/89/75 142/90/75 
f 143/89/75 134/88/83 133/91/84 150/92/81 
f 136/93/84 135/87/63 142/90/75 137/94/75 
f 145/77/77 153/95/77 137/96/75 142/74/75 
f 147/79/79 154/97/79 153/95/77 145/77/77 
f 140/72/74 139/71/74 154/97/79 147/79/79 
s 8
f 132/64/66 152/98/65 123/62/65 
f 152/98/65 151/99/65 123/62/65 
f 151/99/65 150/100/65 123/62/65 
f 129/61/85 123/62/65 150/100/65 133/68/85 
s 32
f 137/69/71 153/99/70 124/61/70 
f 153/99/70 154/101/70 124/61/70 
f 154/101/70 139/102/72 124/61/70 
f 139/102/72 138/60/72 124/61/70 
s 4
f 121/63/86 155/60/86 156/61/86 122/62/86 
s 32
f 121/62/72 157/63/70 158/64/70 
s 16
f 155/62/87 159/65/87 160/66/87 161/67/87 
f 156/61/87 155/62/87 161/67/87 162/68/87 
s 8
f 162/65/66 163/69/88 122/61/66 156/62/65 
s 1
f 164/70/89 165/71/90 166/72/90 167/73/89 
f 168/74/91 169/75/91 170/76/92 171/77/93 
f 171/77/93 170/76/92 172/78/94 173/79/95 
f 173/79/95 172/78/94 174/80/96 166/72/90 
f 166/72/90 174/80/96 175/81/97 167/73/89 
f 169/75/91 176/82/98 177/83/92 170/76/92 
f 172/78/94 178/84/94 158/85/96 174/80/96 
f 170/76/92 177/83/92 178/84/94 172/78/94 
f 174/80/96 158/85/96 157/86/97 175/81/97 
f 161/87/63 160/88/63 169/89/91 168/90/91 
f 169/89/91 160/88/63 159/91/99 176/92/98 
f 162/93/99 161/87/63 168/90/91 163/94/91 
f 171/77/93 179/95/93 163/96/91 168/74/91 
f 173/79/95 180/97/95 179/95/93 171/77/93 
f 166/72/90 165/71/90 180/97/95 173/79/95 
s 32
f 158/64/70 178/98/72 121/62/72 
f 178/98/72 177/99/72 121/62/72 
f 177/99/72 176/100/72 121/62/72 
f 155/61/100 121/62/72 176/100/72 159/68/100 
s 8
f 163/69/88 179/99/66 122/61/66 
f 179/99/66 180/101/66 122/61/66 
f 180/101/66 165/102/65 122/61/66 
f 165/102/65 164/60/65 122/61/66 
f 181/103/70 126/61/72 125/62/70 121/63/72 
f 182/104/87 157/105/68 121/63/72 125/62/70 
f 181/103/70 121/63/72 124/60/72 138/106/68 
s 16
f 181/104/68 138/105/68 141/107/69 183/108/68 
f 184/109/68 183/108/68 141/107/69 185/103/69 
f 185/103/69 141/107/69 149/110/69 131/106/101 
s 1
f 126/63/99 186/60/63 187/61/99 127/62/83 
s 2
f 126/62/100 181/63/100 188/64/100 
s 16
f 186/62/68 189/65/68 190/66/68 191/67/68 
f 187/61/68 186/62/68 191/67/68 192/68/68 
s 2
f 192/65/65 193/69/65 127/61/88 187/62/65 
s 1
f 185/70/102 194/71/103 195/72/103 184/73/102 
f 196/74/104 197/75/105 198/76/106 199/77/106 
f 199/77/106 198/76/106 200/78/107 201/79/108 
f 201/79/108 200/78/107 202/80/109 195/72/103 
f 195/72/103 202/80/109 183/81/110 184/73/102 
f 197/75/105 203/82/104 204/83/106 198/76/106 
f 200/78/107 205/84/108 188/85/103 202/80/109 
f 198/76/106 204/83/106 205/84/108 200/78/107 
f 202/80/109 188/85/103 181/86/110 183/81/110 
f 191/87/62 190/88/62 197/89/105 196/90/104 
f 197/89/105 190/88/62 189/91/62 203/92/104 
f 192/93/62 191/87/62 196/90/104 193/94/105 
f 199/77/106 206/95/106 193/96/105 196/74/104 
f 201/79/108 207/97/108 206/95/106 199/77/106 
f 195/72/103 194/71/103 207/97/108 201/79/108 
s 2
f 188/64/100 205/98/72 126/62/100 
f 205/98/72 204/99/71 126/62/100 
f 204/99/71 203/100/71 126/62/100 
f 186/61/70 126/62/100 203/100/71 189/68/72 
f 193/69/65 206/99/65 127/61/88 
f 206/99/65 207/101/65 127/61/88 
f 207/101/65 194/102/88 127/61/88 
f 194/102/88 185/60/88 127/61/88 
s 32
f 128/61/65 127/62/66 185/104/65 208/103/65 
f 185/104/65 131/105/111 123/63/66 122/60/66 
f 208/103/65 185/104/65 122/60/66 164/106/87 
s 64
f 208/104/87 164/105/87 167/107/87 209/108/87 
f 210/109/87 209/108/87 167/107/87 182/103/87 
f 182/103/87 167/107/87 175/110/87 157/106/87 
s 1
f 128/63/63 211/60/63 212/61/63 125/62/63 
s 8
f 128/62/85 208/63/65 213/64/65 
s 16
f 211/62/87 214/65/87 215/66/87 216/67/87 
f 212/61/87 211/62/87 216/67/87 217/68/87 
s 32
f 217/65/71 218/69/71 125/61/71 212/62/100 
s 1
f 182/70/112 219/71/113 220/72/113 210/73/112 
f 221/74/114 222/75/114 223/76/115 224/77/116 
f 224/77/116 223/76/115 225/78/117 226/79/118 
f 226/79/118 225/78/117 227/80/119 220/72/113 
f 220/72/113 227/80/119 209/81/120 210/73/112 
f 222/75/114 228/82/114 229/83/115 223/76/115 
f 225/78/117 230/84/117 213/85/119 227/80/119 
f 223/76/115 229/83/115 230/84/117 225/78/117 
f 227/80/119 213/85/119 208/86/120 209/81/120 
f 216/87/62 215/88/62 222/89/114 221/90/114 
f 222/89/114 215/88/62 214/91/62 228/92/114 
f 217/93/62 216/87/62 221/90/114 218/94/121 
f 224/77/116 231/95/116 218/96/121 221/74/114 
f 226/79/118 232/97/118 231/95/116 224/77/116 
f 220/72/113 219/71/113 232/97/118 226/79/118 
s 8
f 213/64/65 230/98/85 128/62/85 
f 230/98/85 229/99/85 128/62/85 
f 229/99/85 228/100/85 128/62/85 
f 211/61/85 128/62/85 228/100/85 214/68/85 
s 32
f 218/69/71 231/99/71 125/61/71 
f 231/99/71 232/101/71 125/61/71 
f 232/101/71 219/102/70 125/61/71 
f 219/102/70 182/60/70 125/61/71 
# 94 polygons - 32 triangles

